# xmcd CD database file
#
# Track frame offsets:
#	150
#	22201
#	46802
#	64428
#	78154
#	97880
#
# Disc length: 2004 seconds
#
# Revision: 0
# Processed by: cddbd v1.5.2PL0 Copyright (c) Steve Scherf et al.
# Submitted via: CDex 1.70beta2
#
DISCID=4507d206
DTITLE=BLEEDING EYES - A TRIP TO THE CLOSED UNIVERSE
DYEAR=2012
DGENRE=Sludge Metal
TTITLE0=ARROTINO
TTITLE1=CRUEL WORLD
TTITLE2=POZZO SENZA FONDO
TTITLE3=BARRAGE
TTITLE4=TERZO OCCHIO
TTITLE5=FROM NOW ON IT CAN ONLY GET WORSE
EXTD=YEAR: 2012
EXTT0=
EXTT1=
EXTT2=
EXTT3=
EXTT4=
EXTT5=
PLAYORDER=
